<svg width="18" height="19" viewBox="0 0 18 19" fill="none" xmlns="http://www.w3.org/2000/svg">
<path d="M6.7711 3.55957C7.04823 3.67712 7.22823 3.94899 7.22823 4.25002V6.50002H14.6248C15.039 6.50002 15.3748 6.83581 15.3748 7.25002C15.3748 7.66423 15.039 8 14.6248 8H3.37478C3.06912 8 2.79404 7.81453 2.67946 7.53115C2.56489 7.24777 2.63375 6.92322 2.85351 6.71078L5.95696 3.71078C6.1734 3.50155 6.49397 3.44201 6.7711 3.55957Z" fill="#4ADE80"/>
<path d="M2.62476 11.75C2.62476 11.3358 2.96055 11 3.37476 11H14.6248C14.9304 11 15.2055 11.1855 15.3201 11.4689C15.4347 11.7523 15.3658 12.0768 15.146 12.2892L12.0426 15.2892C11.8261 15.4985 11.5056 15.558 11.2285 15.4405C10.9513 15.3229 10.7713 15.0511 10.7713 14.75V12.5H3.37476C2.96055 12.5 2.62476 12.1642 2.62476 11.75Z" fill="#4ADE80"/>
</svg>
