<svg width="483" height="477" viewBox="0 0 483 477" fill="none" xmlns="http://www.w3.org/2000/svg">
<g filter="url(#filter0_biiiiii_1957_3006)">
<rect x="2" width="477" height="477" rx="238.5" fill="#C4C4C4" fill-opacity="0.01"/>
</g>
<path fill-rule="evenodd" clip-rule="evenodd" d="M224.774 176.899C201.363 174.02 180.05 190.665 177.171 214.076C174.292 237.487 190.937 258.799 214.348 261.678L251.673 266.268C253.33 266.472 254.976 266.578 256.607 266.591L283.55 288.034L284.608 256.368C292.456 249.675 297.917 240.136 299.276 229.092C302.155 205.68 285.51 184.368 262.099 181.489L224.774 176.899Z" fill="#AC8AFC"/>
<path fill-rule="evenodd" clip-rule="evenodd" d="M224.774 176.899C201.363 174.02 180.05 190.665 177.171 214.076C174.292 237.487 190.937 258.799 214.348 261.678L251.673 266.268C253.33 266.472 254.976 266.578 256.607 266.591L283.55 288.034L284.608 256.368C292.456 249.675 297.917 240.136 299.276 229.092C302.155 205.68 285.51 184.368 262.099 181.489L224.774 176.899Z" fill="url(#paint0_radial_1957_3006)" fill-opacity="0.6"/>
<rect x="248.793" y="201.369" width="26.7444" height="42.7089" rx="13.3722" transform="rotate(7.01073 248.793 201.369)" fill="#1A2230"/>
<rect x="206.322" y="196.146" width="26.7444" height="42.7089" rx="13.3722" transform="rotate(7.01073 206.322 196.146)" fill="#1A2230"/>
<g filter="url(#filter1_f_1957_3006)">
<ellipse cx="280.291" cy="199.058" rx="13.5413" ry="6.1024" transform="rotate(37.3532 280.291 199.058)" fill="#DBCCFF"/>
</g>
<g filter="url(#filter2_biiiii_1957_3006)">
<rect x="5" y="70" width="201" height="56" rx="28" fill="#C4C4C4" fill-opacity="0.01"/>
</g>
<path d="M39.0341 91.3636V103H37.2784V91.3636H39.0341ZM41.4545 103V94.2727H43.0852V95.6932H43.1932C43.375 95.2121 43.6723 94.8371 44.0852 94.5682C44.4981 94.2955 44.9924 94.1591 45.5682 94.1591C46.1515 94.1591 46.6402 94.2955 47.0341 94.5682C47.4318 94.8409 47.7254 95.2159 47.9148 95.6932H48.0057C48.214 95.2273 48.5455 94.8561 49 94.5795C49.4545 94.2992 49.9962 94.1591 50.625 94.1591C51.4167 94.1591 52.0625 94.4072 52.5625 94.9034C53.0663 95.3996 53.3182 96.1477 53.3182 97.1477V103H51.6193V97.3068C51.6193 96.7159 51.4583 96.2879 51.1364 96.0227C50.8144 95.7576 50.4299 95.625 49.983 95.625C49.4299 95.625 49 95.7955 48.6932 96.1364C48.3864 96.4735 48.233 96.9072 48.233 97.4375V103H46.5398V97.1989C46.5398 96.7254 46.392 96.3447 46.0966 96.0568C45.8011 95.7689 45.4167 95.625 44.9432 95.625C44.6212 95.625 44.3239 95.7102 44.0511 95.8807C43.7822 96.0473 43.5644 96.2803 43.3977 96.5795C43.2348 96.8788 43.1534 97.2254 43.1534 97.6193V103H41.4545ZM55.5952 106.273V94.2727H57.2543V95.6875H57.3963C57.4948 95.5057 57.6368 95.2955 57.8224 95.0568C58.008 94.8182 58.2656 94.6098 58.5952 94.4318C58.9247 94.25 59.3603 94.1591 59.902 94.1591C60.6065 94.1591 61.2353 94.3371 61.7884 94.6932C62.3414 95.0492 62.7751 95.5625 63.0895 96.233C63.4077 96.9034 63.5668 97.7102 63.5668 98.6534C63.5668 99.5966 63.4096 100.405 63.0952 101.08C62.7808 101.75 62.349 102.267 61.7997 102.631C61.2505 102.991 60.6236 103.17 59.919 103.17C59.3887 103.17 58.955 103.081 58.6179 102.903C58.2846 102.725 58.0232 102.517 57.8338 102.278C57.6444 102.04 57.4986 101.828 57.3963 101.642H57.294V106.273H55.5952ZM57.2599 98.6364C57.2599 99.25 57.349 99.7879 57.527 100.25C57.705 100.712 57.9626 101.074 58.2997 101.335C58.6368 101.593 59.0497 101.722 59.5384 101.722C60.0459 101.722 60.4702 101.587 60.8111 101.318C61.152 101.045 61.4096 100.676 61.5838 100.21C61.7618 99.7443 61.8509 99.2197 61.8509 98.6364C61.8509 98.0606 61.7637 97.5436 61.5895 97.0852C61.419 96.6269 61.1615 96.2652 60.8168 96C60.4759 95.7348 60.0497 95.6023 59.5384 95.6023C59.0459 95.6023 58.6293 95.7292 58.2884 95.983C57.9512 96.2367 57.6955 96.5909 57.5213 97.0455C57.3471 97.5 57.2599 98.0303 57.2599 98.6364ZM65.4702 103V94.2727H67.1122V95.6591H67.2031C67.3622 95.1894 67.6425 94.8201 68.044 94.5511C68.4493 94.2784 68.9077 94.142 69.419 94.142C69.5251 94.142 69.6501 94.1458 69.794 94.1534C69.9418 94.161 70.0573 94.1705 70.1406 94.1818V95.8068C70.0724 95.7879 69.9512 95.767 69.777 95.7443C69.6027 95.7178 69.4285 95.7045 69.2543 95.7045C68.8527 95.7045 68.4948 95.7898 68.1804 95.9602C67.8698 96.1269 67.6236 96.3598 67.4418 96.6591C67.2599 96.9545 67.169 97.2917 67.169 97.6705V103H65.4702ZM74.9744 103.176C74.1563 103.176 73.4422 102.989 72.8324 102.614C72.2225 102.239 71.7491 101.714 71.4119 101.04C71.0748 100.366 70.9062 99.5777 70.9062 98.6761C70.9062 97.7708 71.0748 96.9792 71.4119 96.3011C71.7491 95.6231 72.2225 95.0966 72.8324 94.7216C73.4422 94.3466 74.1563 94.1591 74.9744 94.1591C75.7926 94.1591 76.5066 94.3466 77.1165 94.7216C77.7263 95.0966 78.1998 95.6231 78.5369 96.3011C78.8741 96.9792 79.0426 97.7708 79.0426 98.6761C79.0426 99.5777 78.8741 100.366 78.5369 101.04C78.1998 101.714 77.7263 102.239 77.1165 102.614C76.5066 102.989 75.7926 103.176 74.9744 103.176ZM74.9801 101.75C75.5104 101.75 75.9498 101.61 76.2983 101.33C76.6468 101.049 76.9044 100.676 77.071 100.21C77.2415 99.7443 77.3267 99.2311 77.3267 98.6705C77.3267 98.1136 77.2415 97.6023 77.071 97.1364C76.9044 96.6667 76.6468 96.2898 76.2983 96.0057C75.9498 95.7216 75.5104 95.5795 74.9801 95.5795C74.446 95.5795 74.0028 95.7216 73.6506 96.0057C73.3021 96.2898 73.0426 96.6667 72.8722 97.1364C72.7055 97.6023 72.6222 98.1136 72.6222 98.6705C72.6222 99.2311 72.7055 99.7443 72.8722 100.21C73.0426 100.676 73.3021 101.049 73.6506 101.33C74.0028 101.61 74.446 101.75 74.9801 101.75ZM88.108 94.2727L84.9432 103H83.125L79.9545 94.2727H81.7784L83.9886 100.989H84.0795L86.2841 94.2727H88.108ZM93.169 103.176C92.3092 103.176 91.5687 102.992 90.9474 102.625C90.33 102.254 89.8527 101.733 89.5156 101.062C89.1823 100.388 89.0156 99.5985 89.0156 98.6932C89.0156 97.7992 89.1823 97.0114 89.5156 96.3295C89.8527 95.6477 90.3224 95.1155 90.9247 94.733C91.5308 94.3504 92.2391 94.1591 93.0497 94.1591C93.5421 94.1591 94.0194 94.2405 94.4815 94.4034C94.9437 94.5663 95.3584 94.822 95.7259 95.1705C96.0933 95.5189 96.383 95.9716 96.5952 96.5284C96.8073 97.0814 96.9134 97.7538 96.9134 98.5455V99.1477H89.9759V97.875H95.2486C95.2486 97.428 95.1577 97.0322 94.9759 96.6875C94.794 96.339 94.5384 96.0644 94.2088 95.8636C93.883 95.6629 93.5005 95.5625 93.0611 95.5625C92.5838 95.5625 92.1671 95.6799 91.8111 95.9148C91.4588 96.1458 91.1861 96.4489 90.9929 96.8239C90.8035 97.1951 90.7088 97.5985 90.7088 98.0341V99.0284C90.7088 99.6117 90.8111 100.108 91.0156 100.517C91.224 100.926 91.5137 101.239 91.8849 101.455C92.2562 101.667 92.6899 101.773 93.1861 101.773C93.508 101.773 93.8016 101.727 94.0668 101.636C94.3319 101.542 94.5611 101.402 94.7543 101.216C94.9474 101.03 95.0952 100.801 95.1974 100.528L96.8054 100.818C96.6766 101.292 96.4455 101.706 96.1122 102.062C95.7827 102.415 95.3679 102.689 94.8679 102.886C94.3717 103.08 93.8054 103.176 93.169 103.176ZM103.169 103V91.3636H107.317C108.218 91.3636 108.966 91.5189 109.561 91.8295C110.16 92.1402 110.607 92.5701 110.902 93.1193C111.197 93.6648 111.345 94.2955 111.345 95.0114C111.345 95.7235 111.196 96.3504 110.896 96.892C110.601 97.4299 110.154 97.8485 109.555 98.1477C108.961 98.447 108.213 98.5966 107.311 98.5966H104.169V97.0852H107.152C107.72 97.0852 108.182 97.0038 108.538 96.8409C108.898 96.678 109.161 96.4413 109.328 96.1307C109.495 95.8201 109.578 95.447 109.578 95.0114C109.578 94.572 109.493 94.1913 109.322 93.8693C109.156 93.5473 108.893 93.3011 108.533 93.1307C108.177 92.9564 107.709 92.8693 107.129 92.8693H104.925V103H103.169ZM108.913 97.75L111.788 103H109.788L106.97 97.75H108.913ZM116.997 103.176C116.137 103.176 115.397 102.992 114.776 102.625C114.158 102.254 113.681 101.733 113.344 101.062C113.01 100.388 112.844 99.5985 112.844 98.6932C112.844 97.7992 113.01 97.0114 113.344 96.3295C113.681 95.6477 114.151 95.1155 114.753 94.733C115.359 94.3504 116.067 94.1591 116.878 94.1591C117.37 94.1591 117.848 94.2405 118.31 94.4034C118.772 94.5663 119.187 94.822 119.554 95.1705C119.921 95.5189 120.211 95.9716 120.423 96.5284C120.635 97.0814 120.741 97.7538 120.741 98.5455V99.1477H113.804V97.875H119.077C119.077 97.428 118.986 97.0322 118.804 96.6875C118.622 96.339 118.366 96.0644 118.037 95.8636C117.711 95.6629 117.329 95.5625 116.889 95.5625C116.412 95.5625 115.995 95.6799 115.639 95.9148C115.287 96.1458 115.014 96.4489 114.821 96.8239C114.632 97.1951 114.537 97.5985 114.537 98.0341V99.0284C114.537 99.6117 114.639 100.108 114.844 100.517C115.052 100.926 115.342 101.239 115.713 101.455C116.084 101.667 116.518 101.773 117.014 101.773C117.336 101.773 117.63 101.727 117.895 101.636C118.16 101.542 118.389 101.402 118.582 101.216C118.776 101.03 118.923 100.801 119.026 100.528L120.634 100.818C120.505 101.292 120.274 101.706 119.94 102.062C119.611 102.415 119.196 102.689 118.696 102.886C118.2 103.08 117.634 103.176 116.997 103.176ZM125.166 103.193C124.613 103.193 124.113 103.091 123.666 102.886C123.219 102.678 122.865 102.377 122.604 101.983C122.346 101.589 122.217 101.106 122.217 100.534C122.217 100.042 122.312 99.6364 122.501 99.3182C122.691 99 122.946 98.7481 123.268 98.5625C123.59 98.3769 123.95 98.2367 124.348 98.142C124.746 98.0473 125.151 97.9754 125.564 97.9261C126.087 97.8655 126.511 97.8163 126.837 97.7784C127.162 97.7367 127.399 97.6705 127.547 97.5795C127.695 97.4886 127.768 97.3409 127.768 97.1364V97.0966C127.768 96.6004 127.628 96.2159 127.348 95.9432C127.071 95.6705 126.659 95.5341 126.109 95.5341C125.537 95.5341 125.087 95.661 124.757 95.9148C124.431 96.1648 124.206 96.4432 124.081 96.75L122.484 96.3864C122.674 95.8561 122.95 95.428 123.314 95.1023C123.681 94.7727 124.104 94.5341 124.581 94.3864C125.058 94.2348 125.56 94.1591 126.087 94.1591C126.435 94.1591 126.804 94.2008 127.195 94.2841C127.589 94.3636 127.956 94.5114 128.297 94.7273C128.642 94.9432 128.924 95.2519 129.143 95.6534C129.363 96.0511 129.473 96.5682 129.473 97.2045V103H127.814V101.807H127.746C127.636 102.027 127.471 102.242 127.251 102.455C127.032 102.667 126.75 102.843 126.405 102.983C126.06 103.123 125.647 103.193 125.166 103.193ZM125.536 101.83C126.005 101.83 126.407 101.737 126.74 101.551C127.077 101.366 127.333 101.123 127.507 100.824C127.685 100.521 127.774 100.197 127.774 99.8523V98.7273C127.714 98.7879 127.596 98.8447 127.422 98.8977C127.251 98.947 127.056 98.9905 126.837 99.0284C126.617 99.0625 126.403 99.0947 126.195 99.125C125.986 99.1515 125.812 99.1742 125.672 99.1932C125.342 99.2348 125.041 99.3049 124.768 99.4034C124.5 99.5019 124.284 99.6439 124.121 99.8295C123.962 100.011 123.882 100.254 123.882 100.557C123.882 100.977 124.037 101.295 124.348 101.511C124.659 101.723 125.054 101.83 125.536 101.83ZM135.003 103.17C134.298 103.17 133.67 102.991 133.116 102.631C132.567 102.267 132.135 101.75 131.821 101.08C131.51 100.405 131.355 99.5966 131.355 98.6534C131.355 97.7102 131.512 96.9034 131.827 96.233C132.145 95.5625 132.58 95.0492 133.134 94.6932C133.687 94.3371 134.313 94.1591 135.014 94.1591C135.556 94.1591 135.991 94.25 136.321 94.4318C136.654 94.6098 136.912 94.8182 137.094 95.0568C137.279 95.2955 137.423 95.5057 137.526 95.6875H137.628V91.3636H139.327V103H137.668V101.642H137.526C137.423 101.828 137.276 102.04 137.082 102.278C136.893 102.517 136.632 102.725 136.298 102.903C135.965 103.081 135.533 103.17 135.003 103.17ZM135.378 101.722C135.866 101.722 136.279 101.593 136.616 101.335C136.957 101.074 137.215 100.712 137.389 100.25C137.567 99.7879 137.656 99.25 137.656 98.6364C137.656 98.0303 137.569 97.5 137.395 97.0455C137.221 96.5909 136.965 96.2367 136.628 95.983C136.291 95.7292 135.874 95.6023 135.378 95.6023C134.866 95.6023 134.44 95.7348 134.099 96C133.759 96.2652 133.501 96.6269 133.327 97.0852C133.156 97.5436 133.071 98.0606 133.071 98.6364C133.071 99.2197 133.158 99.7443 133.332 100.21C133.507 100.676 133.764 101.045 134.105 101.318C134.45 101.587 134.874 101.722 135.378 101.722ZM144.291 103.193C143.738 103.193 143.238 103.091 142.791 102.886C142.344 102.678 141.99 102.377 141.729 101.983C141.471 101.589 141.342 101.106 141.342 100.534C141.342 100.042 141.437 99.6364 141.626 99.3182C141.816 99 142.071 98.7481 142.393 98.5625C142.715 98.3769 143.075 98.2367 143.473 98.142C143.871 98.0473 144.276 97.9754 144.689 97.9261C145.212 97.8655 145.636 97.8163 145.962 97.7784C146.287 97.7367 146.524 97.6705 146.672 97.5795C146.82 97.4886 146.893 97.3409 146.893 97.1364V97.0966C146.893 96.6004 146.753 96.2159 146.473 95.9432C146.196 95.6705 145.784 95.5341 145.234 95.5341C144.662 95.5341 144.212 95.661 143.882 95.9148C143.556 96.1648 143.331 96.4432 143.206 96.75L141.609 96.3864C141.799 95.8561 142.075 95.428 142.439 95.1023C142.806 94.7727 143.229 94.5341 143.706 94.3864C144.183 94.2348 144.685 94.1591 145.212 94.1591C145.56 94.1591 145.929 94.2008 146.32 94.2841C146.714 94.3636 147.081 94.5114 147.422 94.7273C147.767 94.9432 148.049 95.2519 148.268 95.6534C148.488 96.0511 148.598 96.5682 148.598 97.2045V103H146.939V101.807H146.871C146.761 102.027 146.596 102.242 146.376 102.455C146.157 102.667 145.875 102.843 145.53 102.983C145.185 103.123 144.772 103.193 144.291 103.193ZM144.661 101.83C145.13 101.83 145.532 101.737 145.865 101.551C146.202 101.366 146.458 101.123 146.632 100.824C146.81 100.521 146.899 100.197 146.899 99.8523V98.7273C146.839 98.7879 146.721 98.8447 146.547 98.8977C146.376 98.947 146.181 98.9905 145.962 99.0284C145.742 99.0625 145.528 99.0947 145.32 99.125C145.111 99.1515 144.937 99.1742 144.797 99.1932C144.467 99.2348 144.166 99.3049 143.893 99.4034C143.625 99.5019 143.409 99.6439 143.246 99.8295C143.087 100.011 143.007 100.254 143.007 100.557C143.007 100.977 143.162 101.295 143.473 101.511C143.784 101.723 144.179 101.83 144.661 101.83ZM150.997 103V91.3636H152.696V95.6875H152.798C152.897 95.5057 153.039 95.2955 153.224 95.0568C153.41 94.8182 153.668 94.6098 153.997 94.4318C154.327 94.25 154.762 94.1591 155.304 94.1591C156.009 94.1591 156.637 94.3371 157.19 94.6932C157.743 95.0492 158.177 95.5625 158.491 96.233C158.81 96.9034 158.969 97.7102 158.969 98.6534C158.969 99.5966 158.812 100.405 158.497 101.08C158.183 101.75 157.751 102.267 157.202 102.631C156.652 102.991 156.026 103.17 155.321 103.17C154.791 103.17 154.357 103.081 154.02 102.903C153.687 102.725 153.425 102.517 153.236 102.278C153.046 102.04 152.901 101.828 152.798 101.642H152.656V103H150.997ZM152.662 98.6364C152.662 99.25 152.751 99.7879 152.929 100.25C153.107 100.712 153.365 101.074 153.702 101.335C154.039 101.593 154.452 101.722 154.94 101.722C155.448 101.722 155.872 101.587 156.213 101.318C156.554 101.045 156.812 100.676 156.986 100.21C157.164 99.7443 157.253 99.2197 157.253 98.6364C157.253 98.0606 157.166 97.5436 156.991 97.0852C156.821 96.6269 156.563 96.2652 156.219 96C155.878 95.7348 155.452 95.6023 154.94 95.6023C154.448 95.6023 154.031 95.7292 153.69 95.983C153.353 96.2367 153.098 96.5909 152.923 97.0455C152.749 97.5 152.662 98.0303 152.662 98.6364ZM160.876 103V94.2727H162.575V103H160.876ZM161.734 92.9261C161.439 92.9261 161.185 92.8277 160.973 92.6307C160.765 92.4299 160.661 92.1913 160.661 91.9148C160.661 91.6345 160.765 91.3958 160.973 91.1989C161.185 90.9981 161.439 90.8977 161.734 90.8977C162.03 90.8977 162.282 90.9981 162.49 91.1989C162.702 91.3958 162.808 91.6345 162.808 91.9148C162.808 92.1913 162.702 92.4299 162.49 92.6307C162.282 92.8277 162.03 92.9261 161.734 92.9261ZM166.56 91.3636V103H164.861V91.3636H166.56ZM168.845 103V94.2727H170.544V103H168.845ZM169.703 92.9261C169.408 92.9261 169.154 92.8277 168.942 92.6307C168.733 92.4299 168.629 92.1913 168.629 91.9148C168.629 91.6345 168.733 91.3958 168.942 91.1989C169.154 90.9981 169.408 90.8977 169.703 90.8977C169.999 90.8977 170.25 90.9981 170.459 91.1989C170.671 91.3958 170.777 91.6345 170.777 91.9148C170.777 92.1913 170.671 92.4299 170.459 92.6307C170.25 92.8277 169.999 92.9261 169.703 92.9261ZM176.903 94.2727V95.6364H172.136V94.2727H176.903ZM173.415 92.1818H175.114V100.438C175.114 100.767 175.163 101.015 175.261 101.182C175.36 101.345 175.487 101.456 175.642 101.517C175.801 101.574 175.973 101.602 176.159 101.602C176.295 101.602 176.415 101.593 176.517 101.574C176.619 101.555 176.699 101.54 176.756 101.528L177.062 102.932C176.964 102.97 176.824 103.008 176.642 103.045C176.46 103.087 176.233 103.11 175.96 103.114C175.513 103.121 175.097 103.042 174.71 102.875C174.324 102.708 174.011 102.451 173.773 102.102C173.534 101.754 173.415 101.316 173.415 100.79V92.1818ZM179.857 106.273C179.603 106.273 179.372 106.252 179.163 106.21C178.955 106.172 178.8 106.131 178.697 106.085L179.107 104.693C179.417 104.777 179.694 104.813 179.936 104.801C180.179 104.79 180.393 104.699 180.578 104.528C180.768 104.358 180.934 104.08 181.078 103.693L181.288 103.114L178.095 94.2727H179.913L182.124 101.045H182.214L184.425 94.2727H186.249L182.652 104.165C182.485 104.619 182.273 105.004 182.016 105.318C181.758 105.636 181.451 105.875 181.095 106.034C180.739 106.193 180.326 106.273 179.857 106.273Z" fill="white"/>
<g filter="url(#filter3_biiiii_1957_3006)">
<rect x="118" y="320" width="242" height="56" rx="28" fill="#C4C4C4" fill-opacity="0.01"/>
</g>
<path d="M150.278 353V341.364H157.494V342.875H152.034V346.42H156.977V347.926H152.034V353H150.278ZM159.517 353V344.273H161.216V353H159.517ZM160.375 342.926C160.08 342.926 159.826 342.828 159.614 342.631C159.405 342.43 159.301 342.191 159.301 341.915C159.301 341.634 159.405 341.396 159.614 341.199C159.826 340.998 160.08 340.898 160.375 340.898C160.67 340.898 160.922 340.998 161.131 341.199C161.343 341.396 161.449 341.634 161.449 341.915C161.449 342.191 161.343 342.43 161.131 342.631C160.922 342.828 160.67 342.926 160.375 342.926ZM164.842 344.273L166.768 347.67L168.712 344.273H170.57L167.848 348.636L170.592 353H168.734L166.768 349.739L164.808 353H162.945L165.661 348.636L162.979 344.273H164.842ZM183.031 344.42C182.971 343.883 182.721 343.466 182.281 343.17C181.842 342.871 181.289 342.722 180.622 342.722C180.145 342.722 179.732 342.797 179.384 342.949C179.035 343.097 178.764 343.301 178.571 343.562C178.382 343.82 178.287 344.114 178.287 344.443C178.287 344.72 178.351 344.958 178.48 345.159C178.613 345.36 178.785 345.528 178.997 345.665C179.213 345.797 179.444 345.909 179.69 346C179.937 346.087 180.173 346.159 180.401 346.216L181.537 346.511C181.908 346.602 182.289 346.725 182.679 346.881C183.069 347.036 183.431 347.241 183.764 347.494C184.098 347.748 184.366 348.062 184.571 348.438C184.779 348.812 184.884 349.261 184.884 349.784C184.884 350.443 184.713 351.028 184.372 351.54C184.035 352.051 183.545 352.455 182.901 352.75C182.26 353.045 181.486 353.193 180.577 353.193C179.705 353.193 178.952 353.055 178.315 352.778C177.679 352.502 177.181 352.11 176.821 351.602C176.461 351.091 176.262 350.485 176.224 349.784H177.986C178.02 350.205 178.156 350.555 178.395 350.835C178.637 351.112 178.946 351.318 179.321 351.455C179.7 351.587 180.115 351.653 180.565 351.653C181.062 351.653 181.503 351.576 181.889 351.42C182.279 351.261 182.586 351.042 182.81 350.761C183.033 350.477 183.145 350.146 183.145 349.767C183.145 349.422 183.046 349.14 182.849 348.92C182.656 348.701 182.393 348.519 182.06 348.375C181.73 348.231 181.357 348.104 180.94 347.994L179.565 347.619C178.634 347.366 177.895 346.992 177.349 346.5C176.808 346.008 176.537 345.356 176.537 344.545C176.537 343.875 176.719 343.29 177.082 342.79C177.446 342.29 177.938 341.902 178.56 341.625C179.181 341.345 179.882 341.205 180.662 341.205C181.45 341.205 182.145 341.343 182.747 341.619C183.353 341.896 183.83 342.277 184.179 342.761C184.527 343.242 184.709 343.795 184.724 344.42H183.031ZM186.845 356.273V344.273H188.504V345.688H188.646C188.745 345.506 188.887 345.295 189.072 345.057C189.258 344.818 189.516 344.61 189.845 344.432C190.175 344.25 190.61 344.159 191.152 344.159C191.857 344.159 192.485 344.337 193.038 344.693C193.591 345.049 194.025 345.562 194.339 346.233C194.658 346.903 194.817 347.71 194.817 348.653C194.817 349.597 194.66 350.405 194.345 351.08C194.031 351.75 193.599 352.267 193.05 352.631C192.5 352.991 191.874 353.17 191.169 353.17C190.639 353.17 190.205 353.081 189.868 352.903C189.535 352.725 189.273 352.517 189.084 352.278C188.894 352.04 188.749 351.828 188.646 351.642H188.544V356.273H186.845ZM188.51 348.636C188.51 349.25 188.599 349.788 188.777 350.25C188.955 350.712 189.213 351.074 189.55 351.335C189.887 351.593 190.3 351.722 190.788 351.722C191.296 351.722 191.72 351.587 192.061 351.318C192.402 351.045 192.66 350.676 192.834 350.21C193.012 349.744 193.101 349.22 193.101 348.636C193.101 348.061 193.014 347.544 192.839 347.085C192.669 346.627 192.411 346.265 192.067 346C191.726 345.735 191.3 345.602 190.788 345.602C190.296 345.602 189.879 345.729 189.538 345.983C189.201 346.237 188.946 346.591 188.771 347.045C188.597 347.5 188.51 348.03 188.51 348.636ZM200.482 353.176C199.622 353.176 198.881 352.992 198.26 352.625C197.643 352.254 197.165 351.733 196.828 351.062C196.495 350.388 196.328 349.598 196.328 348.693C196.328 347.799 196.495 347.011 196.828 346.33C197.165 345.648 197.635 345.116 198.237 344.733C198.843 344.35 199.552 344.159 200.362 344.159C200.855 344.159 201.332 344.241 201.794 344.403C202.256 344.566 202.671 344.822 203.038 345.17C203.406 345.519 203.696 345.972 203.908 346.528C204.12 347.081 204.226 347.754 204.226 348.545V349.148H197.288V347.875H202.561C202.561 347.428 202.47 347.032 202.288 346.688C202.107 346.339 201.851 346.064 201.521 345.864C201.196 345.663 200.813 345.562 200.374 345.562C199.896 345.562 199.48 345.68 199.124 345.915C198.771 346.146 198.499 346.449 198.305 346.824C198.116 347.195 198.021 347.598 198.021 348.034V349.028C198.021 349.612 198.124 350.108 198.328 350.517C198.536 350.926 198.826 351.239 199.197 351.455C199.569 351.667 200.002 351.773 200.499 351.773C200.821 351.773 201.114 351.727 201.379 351.636C201.644 351.542 201.874 351.402 202.067 351.216C202.26 351.03 202.408 350.801 202.51 350.528L204.118 350.818C203.989 351.292 203.758 351.706 203.425 352.062C203.095 352.415 202.68 352.689 202.18 352.886C201.684 353.08 201.118 353.176 200.482 353.176ZM207.81 341.364V353H206.111V341.364H207.81ZM211.794 341.364V353H210.095V341.364H211.794ZM214.08 353V344.273H215.778V353H214.08ZM214.938 342.926C214.642 342.926 214.388 342.828 214.176 342.631C213.968 342.43 213.864 342.191 213.864 341.915C213.864 341.634 213.968 341.396 214.176 341.199C214.388 340.998 214.642 340.898 214.938 340.898C215.233 340.898 215.485 340.998 215.693 341.199C215.905 341.396 216.011 341.634 216.011 341.915C216.011 342.191 215.905 342.43 215.693 342.631C215.485 342.828 215.233 342.926 214.938 342.926ZM219.763 347.818V353H218.064V344.273H219.695V345.693H219.803C220.003 345.231 220.318 344.86 220.746 344.58C221.178 344.299 221.721 344.159 222.376 344.159C222.971 344.159 223.492 344.284 223.939 344.534C224.386 344.78 224.732 345.148 224.979 345.636C225.225 346.125 225.348 346.729 225.348 347.449V353H223.649V347.653C223.649 347.021 223.484 346.527 223.155 346.17C222.825 345.811 222.373 345.631 221.797 345.631C221.403 345.631 221.053 345.716 220.746 345.886C220.443 346.057 220.202 346.307 220.024 346.636C219.85 346.962 219.763 347.356 219.763 347.818ZM231.286 356.455C230.592 356.455 229.996 356.364 229.496 356.182C229 356 228.594 355.759 228.28 355.46C227.965 355.161 227.731 354.833 227.575 354.477L229.036 353.875C229.138 354.042 229.274 354.218 229.445 354.403C229.619 354.593 229.854 354.754 230.149 354.886C230.448 355.019 230.833 355.085 231.303 355.085C231.946 355.085 232.479 354.928 232.899 354.614C233.32 354.303 233.53 353.807 233.53 353.125V351.409H233.422C233.32 351.595 233.172 351.801 232.979 352.028C232.789 352.256 232.528 352.453 232.195 352.619C231.861 352.786 231.428 352.869 230.893 352.869C230.204 352.869 229.583 352.708 229.03 352.386C228.481 352.061 228.045 351.581 227.723 350.949C227.405 350.312 227.246 349.53 227.246 348.602C227.246 347.674 227.403 346.879 227.717 346.216C228.036 345.553 228.471 345.045 229.024 344.693C229.577 344.337 230.204 344.159 230.905 344.159C231.446 344.159 231.884 344.25 232.217 344.432C232.551 344.61 232.81 344.818 232.996 345.057C233.185 345.295 233.331 345.506 233.433 345.688H233.558V344.273H235.223V353.193C235.223 353.943 235.049 354.559 234.7 355.04C234.352 355.521 233.88 355.877 233.286 356.108C232.695 356.339 232.028 356.455 231.286 356.455ZM231.268 351.46C231.757 351.46 232.17 351.347 232.507 351.119C232.848 350.888 233.106 350.559 233.28 350.131C233.458 349.699 233.547 349.182 233.547 348.58C233.547 347.992 233.46 347.475 233.286 347.028C233.111 346.581 232.856 346.233 232.518 345.983C232.181 345.729 231.765 345.602 231.268 345.602C230.757 345.602 230.331 345.735 229.99 346C229.649 346.261 229.392 346.617 229.217 347.068C229.047 347.519 228.962 348.023 228.962 348.58C228.962 349.152 229.049 349.653 229.223 350.085C229.397 350.517 229.655 350.854 229.996 351.097C230.34 351.339 230.765 351.46 231.268 351.46ZM245.122 353.165C244.342 353.165 243.67 353.023 243.105 352.739C242.545 352.455 242.113 352.068 241.81 351.58C241.507 351.087 241.355 350.53 241.355 349.909C241.355 349.436 241.454 349.015 241.651 348.648C241.848 348.277 242.122 347.934 242.474 347.619C242.827 347.305 243.234 346.989 243.696 346.67L245.571 345.347C245.889 345.138 246.137 344.919 246.315 344.688C246.493 344.453 246.582 344.163 246.582 343.818C246.582 343.545 246.465 343.284 246.23 343.034C245.995 342.784 245.681 342.659 245.287 342.659C245.014 342.659 244.774 342.725 244.565 342.858C244.361 342.991 244.2 343.161 244.082 343.369C243.969 343.574 243.912 343.79 243.912 344.017C243.912 344.282 243.984 344.549 244.128 344.818C244.276 345.087 244.465 345.366 244.696 345.653C244.927 345.937 245.17 346.233 245.423 346.54L250.827 353H248.906L244.435 347.744C244.06 347.301 243.711 346.884 243.389 346.494C243.067 346.1 242.806 345.703 242.605 345.301C242.408 344.896 242.31 344.458 242.31 343.989C242.31 343.455 242.431 342.981 242.673 342.568C242.92 342.152 243.262 341.826 243.702 341.591C244.141 341.356 244.656 341.239 245.247 341.239C245.846 341.239 246.359 341.356 246.787 341.591C247.219 341.822 247.55 342.131 247.781 342.517C248.016 342.9 248.134 343.318 248.134 343.773C248.134 344.326 247.995 344.814 247.719 345.239C247.446 345.659 247.069 346.045 246.588 346.398L244.253 348.119C243.798 348.453 243.482 348.782 243.304 349.108C243.13 349.43 243.043 349.682 243.043 349.864C243.043 350.197 243.128 350.506 243.298 350.79C243.473 351.074 243.715 351.301 244.026 351.472C244.34 351.642 244.707 351.727 245.128 351.727C245.56 351.727 245.98 351.634 246.389 351.449C246.802 351.259 247.175 350.989 247.509 350.636C247.846 350.284 248.113 349.862 248.31 349.369C248.507 348.877 248.605 348.326 248.605 347.716H250.139C250.139 348.466 250.054 349.1 249.884 349.619C249.713 350.134 249.507 350.555 249.264 350.881C249.026 351.203 248.8 351.455 248.588 351.636C248.52 351.697 248.455 351.758 248.395 351.818C248.334 351.879 248.27 351.939 248.202 352C247.808 352.398 247.33 352.691 246.77 352.881C246.213 353.07 245.664 353.165 245.122 353.165ZM264.403 345.04C264.294 344.695 264.146 344.386 263.96 344.114C263.778 343.837 263.561 343.602 263.307 343.409C263.053 343.212 262.763 343.062 262.438 342.96C262.116 342.858 261.761 342.807 261.375 342.807C260.72 342.807 260.129 342.975 259.602 343.312C259.076 343.65 258.659 344.144 258.352 344.795C258.049 345.443 257.898 346.237 257.898 347.176C257.898 348.119 258.051 348.917 258.358 349.568C258.665 350.22 259.085 350.714 259.619 351.051C260.153 351.388 260.761 351.557 261.443 351.557C262.076 351.557 262.627 351.428 263.097 351.17C263.57 350.913 263.936 350.549 264.193 350.08C264.455 349.606 264.585 349.049 264.585 348.409L265.04 348.494H261.71V347.045H266.284V348.369C266.284 349.347 266.076 350.195 265.659 350.915C265.246 351.631 264.674 352.184 263.943 352.574C263.216 352.964 262.383 353.159 261.443 353.159C260.39 353.159 259.466 352.917 258.67 352.432C257.879 351.947 257.261 351.259 256.818 350.369C256.375 349.475 256.153 348.415 256.153 347.188C256.153 346.259 256.282 345.426 256.54 344.688C256.797 343.949 257.159 343.322 257.625 342.807C258.095 342.288 258.646 341.892 259.278 341.619C259.915 341.343 260.61 341.205 261.364 341.205C261.992 341.205 262.578 341.297 263.119 341.483C263.665 341.669 264.15 341.932 264.574 342.273C265.002 342.614 265.356 343.019 265.636 343.489C265.917 343.955 266.106 344.472 266.205 345.04H264.403ZM268.376 353V344.273H270.018V345.659H270.109C270.268 345.189 270.549 344.82 270.95 344.551C271.356 344.278 271.814 344.142 272.325 344.142C272.431 344.142 272.556 344.146 272.7 344.153C272.848 344.161 272.964 344.17 273.047 344.182V345.807C272.979 345.788 272.857 345.767 272.683 345.744C272.509 345.718 272.335 345.705 272.161 345.705C271.759 345.705 271.401 345.79 271.087 345.96C270.776 346.127 270.53 346.36 270.348 346.659C270.166 346.955 270.075 347.292 270.075 347.67V353H268.376ZM276.979 353.193C276.426 353.193 275.926 353.091 275.479 352.886C275.032 352.678 274.678 352.377 274.416 351.983C274.159 351.589 274.03 351.106 274.03 350.534C274.03 350.042 274.125 349.636 274.314 349.318C274.503 349 274.759 348.748 275.081 348.562C275.403 348.377 275.763 348.237 276.161 348.142C276.558 348.047 276.964 347.975 277.376 347.926C277.899 347.866 278.323 347.816 278.649 347.778C278.975 347.737 279.212 347.67 279.359 347.58C279.507 347.489 279.581 347.341 279.581 347.136V347.097C279.581 346.6 279.441 346.216 279.161 345.943C278.884 345.67 278.471 345.534 277.922 345.534C277.35 345.534 276.899 345.661 276.57 345.915C276.244 346.165 276.018 346.443 275.893 346.75L274.297 346.386C274.486 345.856 274.763 345.428 275.126 345.102C275.494 344.773 275.916 344.534 276.393 344.386C276.871 344.235 277.373 344.159 277.899 344.159C278.248 344.159 278.617 344.201 279.007 344.284C279.401 344.364 279.768 344.511 280.109 344.727C280.454 344.943 280.736 345.252 280.956 345.653C281.176 346.051 281.286 346.568 281.286 347.205V353H279.626V351.807H279.558C279.448 352.027 279.284 352.242 279.064 352.455C278.844 352.667 278.562 352.843 278.217 352.983C277.873 353.123 277.46 353.193 276.979 353.193ZM277.348 351.83C277.818 351.83 278.219 351.737 278.553 351.551C278.89 351.366 279.145 351.123 279.32 350.824C279.498 350.521 279.587 350.197 279.587 349.852V348.727C279.526 348.788 279.409 348.845 279.234 348.898C279.064 348.947 278.869 348.991 278.649 349.028C278.429 349.062 278.215 349.095 278.007 349.125C277.799 349.152 277.625 349.174 277.484 349.193C277.155 349.235 276.854 349.305 276.581 349.403C276.312 349.502 276.096 349.644 275.933 349.83C275.774 350.011 275.695 350.254 275.695 350.557C275.695 350.977 275.85 351.295 276.161 351.511C276.471 351.723 276.867 351.83 277.348 351.83ZM283.548 353V344.273H285.179V345.693H285.287C285.469 345.212 285.766 344.837 286.179 344.568C286.592 344.295 287.086 344.159 287.662 344.159C288.245 344.159 288.734 344.295 289.128 344.568C289.526 344.841 289.819 345.216 290.009 345.693H290.099C290.308 345.227 290.639 344.856 291.094 344.58C291.548 344.299 292.09 344.159 292.719 344.159C293.51 344.159 294.156 344.407 294.656 344.903C295.16 345.4 295.412 346.148 295.412 347.148V353H293.713V347.307C293.713 346.716 293.552 346.288 293.23 346.023C292.908 345.758 292.524 345.625 292.077 345.625C291.524 345.625 291.094 345.795 290.787 346.136C290.48 346.473 290.327 346.907 290.327 347.438V353H288.634V347.199C288.634 346.725 288.486 346.345 288.19 346.057C287.895 345.769 287.51 345.625 287.037 345.625C286.715 345.625 286.418 345.71 286.145 345.881C285.876 346.047 285.658 346.28 285.491 346.58C285.329 346.879 285.247 347.225 285.247 347.619V353H283.548ZM297.689 353V344.273H299.32V345.693H299.428C299.609 345.212 299.907 344.837 300.32 344.568C300.732 344.295 301.227 344.159 301.803 344.159C302.386 344.159 302.875 344.295 303.268 344.568C303.666 344.841 303.96 345.216 304.149 345.693H304.24C304.448 345.227 304.78 344.856 305.234 344.58C305.689 344.299 306.231 344.159 306.859 344.159C307.651 344.159 308.297 344.407 308.797 344.903C309.301 345.4 309.553 346.148 309.553 347.148V353H307.854V347.307C307.854 346.716 307.693 346.288 307.371 346.023C307.049 345.758 306.664 345.625 306.217 345.625C305.664 345.625 305.234 345.795 304.928 346.136C304.621 346.473 304.467 346.907 304.467 347.438V353H302.774V347.199C302.774 346.725 302.626 346.345 302.331 346.057C302.036 345.769 301.651 345.625 301.178 345.625C300.856 345.625 300.558 345.71 300.286 345.881C300.017 346.047 299.799 346.28 299.632 346.58C299.469 346.879 299.388 347.225 299.388 347.619V353H297.689ZM314.369 353.193C313.816 353.193 313.316 353.091 312.869 352.886C312.422 352.678 312.068 352.377 311.807 351.983C311.549 351.589 311.42 351.106 311.42 350.534C311.42 350.042 311.515 349.636 311.705 349.318C311.894 349 312.15 348.748 312.472 348.562C312.794 348.377 313.153 348.237 313.551 348.142C313.949 348.047 314.354 347.975 314.767 347.926C315.29 347.866 315.714 347.816 316.04 347.778C316.366 347.737 316.602 347.67 316.75 347.58C316.898 347.489 316.972 347.341 316.972 347.136V347.097C316.972 346.6 316.831 346.216 316.551 345.943C316.275 345.67 315.862 345.534 315.312 345.534C314.741 345.534 314.29 345.661 313.96 345.915C313.634 346.165 313.409 346.443 313.284 346.75L311.688 346.386C311.877 345.856 312.153 345.428 312.517 345.102C312.884 344.773 313.307 344.534 313.784 344.386C314.261 344.235 314.763 344.159 315.29 344.159C315.638 344.159 316.008 344.201 316.398 344.284C316.792 344.364 317.159 344.511 317.5 344.727C317.845 344.943 318.127 345.252 318.347 345.653C318.566 346.051 318.676 346.568 318.676 347.205V353H317.017V351.807H316.949C316.839 352.027 316.674 352.242 316.455 352.455C316.235 352.667 315.953 352.843 315.608 352.983C315.263 353.123 314.85 353.193 314.369 353.193ZM314.739 351.83C315.208 351.83 315.61 351.737 315.943 351.551C316.28 351.366 316.536 351.123 316.71 350.824C316.888 350.521 316.977 350.197 316.977 349.852V348.727C316.917 348.788 316.799 348.845 316.625 348.898C316.455 348.947 316.259 348.991 316.04 349.028C315.82 349.062 315.606 349.095 315.398 349.125C315.189 349.152 315.015 349.174 314.875 349.193C314.545 349.235 314.244 349.305 313.972 349.403C313.703 349.502 313.487 349.644 313.324 349.83C313.165 350.011 313.085 350.254 313.085 350.557C313.085 350.977 313.241 351.295 313.551 351.511C313.862 351.723 314.258 351.83 314.739 351.83ZM320.939 353V344.273H322.581V345.659H322.672C322.831 345.189 323.111 344.82 323.513 344.551C323.918 344.278 324.376 344.142 324.888 344.142C324.994 344.142 325.119 344.146 325.263 344.153C325.411 344.161 325.526 344.17 325.609 344.182V345.807C325.541 345.788 325.42 345.767 325.246 345.744C325.071 345.718 324.897 345.705 324.723 345.705C324.321 345.705 323.964 345.79 323.649 345.96C323.339 346.127 323.092 346.36 322.911 346.659C322.729 346.955 322.638 347.292 322.638 347.67V353H320.939Z" fill="white"/>
<g filter="url(#filter4_biiiii_1957_3006)">
<rect x="299" y="126" width="184" height="56" rx="28" fill="#C4C4C4" fill-opacity="0.01"/>
</g>
<path d="M333.034 147.364V159H331.278V147.364H333.034ZM335.455 159V150.273H337.085V151.693H337.193C337.375 151.212 337.672 150.837 338.085 150.568C338.498 150.295 338.992 150.159 339.568 150.159C340.152 150.159 340.64 150.295 341.034 150.568C341.432 150.841 341.725 151.216 341.915 151.693H342.006C342.214 151.227 342.545 150.856 343 150.58C343.455 150.299 343.996 150.159 344.625 150.159C345.417 150.159 346.062 150.407 346.562 150.903C347.066 151.4 347.318 152.148 347.318 153.148V159H345.619V153.307C345.619 152.716 345.458 152.288 345.136 152.023C344.814 151.758 344.43 151.625 343.983 151.625C343.43 151.625 343 151.795 342.693 152.136C342.386 152.473 342.233 152.907 342.233 153.438V159H340.54V153.199C340.54 152.725 340.392 152.345 340.097 152.057C339.801 151.769 339.417 151.625 338.943 151.625C338.621 151.625 338.324 151.71 338.051 151.881C337.782 152.047 337.564 152.28 337.398 152.58C337.235 152.879 337.153 153.225 337.153 153.619V159H335.455ZM349.595 162.273V150.273H351.254V151.688H351.396C351.495 151.506 351.637 151.295 351.822 151.057C352.008 150.818 352.266 150.61 352.595 150.432C352.925 150.25 353.36 150.159 353.902 150.159C354.607 150.159 355.235 150.337 355.788 150.693C356.341 151.049 356.775 151.562 357.089 152.233C357.408 152.903 357.567 153.71 357.567 154.653C357.567 155.597 357.41 156.405 357.095 157.08C356.781 157.75 356.349 158.267 355.8 158.631C355.25 158.991 354.624 159.17 353.919 159.17C353.389 159.17 352.955 159.081 352.618 158.903C352.285 158.725 352.023 158.517 351.834 158.278C351.644 158.04 351.499 157.828 351.396 157.642H351.294V162.273H349.595ZM351.26 154.636C351.26 155.25 351.349 155.788 351.527 156.25C351.705 156.712 351.963 157.074 352.3 157.335C352.637 157.593 353.05 157.722 353.538 157.722C354.046 157.722 354.47 157.587 354.811 157.318C355.152 157.045 355.41 156.676 355.584 156.21C355.762 155.744 355.851 155.22 355.851 154.636C355.851 154.061 355.764 153.544 355.589 153.085C355.419 152.627 355.161 152.265 354.817 152C354.476 151.735 354.05 151.602 353.538 151.602C353.046 151.602 352.629 151.729 352.288 151.983C351.951 152.237 351.696 152.591 351.521 153.045C351.347 153.5 351.26 154.03 351.26 154.636ZM359.47 159V150.273H361.112V151.659H361.203C361.362 151.189 361.643 150.82 362.044 150.551C362.449 150.278 362.908 150.142 363.419 150.142C363.525 150.142 363.65 150.146 363.794 150.153C363.942 150.161 364.057 150.17 364.141 150.182V151.807C364.072 151.788 363.951 151.767 363.777 151.744C363.603 151.718 363.429 151.705 363.254 151.705C362.853 151.705 362.495 151.79 362.18 151.96C361.87 152.127 361.624 152.36 361.442 152.659C361.26 152.955 361.169 153.292 361.169 153.67V159H359.47ZM368.974 159.176C368.156 159.176 367.442 158.989 366.832 158.614C366.223 158.239 365.749 157.714 365.412 157.04C365.075 156.366 364.906 155.578 364.906 154.676C364.906 153.771 365.075 152.979 365.412 152.301C365.749 151.623 366.223 151.097 366.832 150.722C367.442 150.347 368.156 150.159 368.974 150.159C369.793 150.159 370.507 150.347 371.116 150.722C371.726 151.097 372.2 151.623 372.537 152.301C372.874 152.979 373.043 153.771 373.043 154.676C373.043 155.578 372.874 156.366 372.537 157.04C372.2 157.714 371.726 158.239 371.116 158.614C370.507 158.989 369.793 159.176 368.974 159.176ZM368.98 157.75C369.51 157.75 369.95 157.61 370.298 157.33C370.647 157.049 370.904 156.676 371.071 156.21C371.241 155.744 371.327 155.231 371.327 154.67C371.327 154.114 371.241 153.602 371.071 153.136C370.904 152.667 370.647 152.29 370.298 152.006C369.95 151.722 369.51 151.58 368.98 151.58C368.446 151.58 368.003 151.722 367.651 152.006C367.302 152.29 367.043 152.667 366.872 153.136C366.705 153.602 366.622 154.114 366.622 154.67C366.622 155.231 366.705 155.744 366.872 156.21C367.043 156.676 367.302 157.049 367.651 157.33C368.003 157.61 368.446 157.75 368.98 157.75ZM382.108 150.273L378.943 159H377.125L373.955 150.273H375.778L377.989 156.989H378.08L380.284 150.273H382.108ZM387.169 159.176C386.309 159.176 385.569 158.992 384.947 158.625C384.33 158.254 383.853 157.733 383.516 157.062C383.182 156.388 383.016 155.598 383.016 154.693C383.016 153.799 383.182 153.011 383.516 152.33C383.853 151.648 384.322 151.116 384.925 150.733C385.531 150.35 386.239 150.159 387.05 150.159C387.542 150.159 388.019 150.241 388.482 150.403C388.944 150.566 389.358 150.822 389.726 151.17C390.093 151.519 390.383 151.972 390.595 152.528C390.807 153.081 390.913 153.754 390.913 154.545V155.148H383.976V153.875H389.249C389.249 153.428 389.158 153.032 388.976 152.688C388.794 152.339 388.538 152.064 388.209 151.864C387.883 151.663 387.5 151.562 387.061 151.562C386.584 151.562 386.167 151.68 385.811 151.915C385.459 152.146 385.186 152.449 384.993 152.824C384.804 153.195 384.709 153.598 384.709 154.034V155.028C384.709 155.612 384.811 156.108 385.016 156.517C385.224 156.926 385.514 157.239 385.885 157.455C386.256 157.667 386.69 157.773 387.186 157.773C387.508 157.773 387.802 157.727 388.067 157.636C388.332 157.542 388.561 157.402 388.754 157.216C388.947 157.03 389.095 156.801 389.197 156.528L390.805 156.818C390.677 157.292 390.446 157.706 390.112 158.062C389.783 158.415 389.368 158.689 388.868 158.886C388.372 159.08 387.805 159.176 387.169 159.176ZM401.447 155.227H403.175L404.391 156.812L404.964 157.517L406.902 160.045H405.107L403.811 158.358L403.368 157.744L401.447 155.227ZM407.277 153.182C407.277 154.424 407.05 155.492 406.595 156.386C406.141 157.277 405.518 157.962 404.726 158.443C403.938 158.92 403.042 159.159 402.038 159.159C401.031 159.159 400.131 158.92 399.339 158.443C398.552 157.962 397.93 157.275 397.476 156.381C397.021 155.487 396.794 154.42 396.794 153.182C396.794 151.939 397.021 150.873 397.476 149.983C397.93 149.089 398.552 148.403 399.339 147.926C400.131 147.445 401.031 147.205 402.038 147.205C403.042 147.205 403.938 147.445 404.726 147.926C405.518 148.403 406.141 149.089 406.595 149.983C407.05 150.873 407.277 151.939 407.277 153.182ZM405.538 153.182C405.538 152.235 405.385 151.437 405.078 150.79C404.775 150.138 404.358 149.646 403.828 149.312C403.302 148.975 402.705 148.807 402.038 148.807C401.368 148.807 400.769 148.975 400.243 149.312C399.716 149.646 399.3 150.138 398.993 150.79C398.69 151.437 398.538 152.235 398.538 153.182C398.538 154.129 398.69 154.928 398.993 155.58C399.3 156.227 399.716 156.72 400.243 157.057C400.769 157.39 401.368 157.557 402.038 157.557C402.705 157.557 403.302 157.39 403.828 157.057C404.358 156.72 404.775 156.227 405.078 155.58C405.385 154.928 405.538 154.129 405.538 153.182ZM414.858 155.381V150.273H416.562V159H414.892V157.489H414.801C414.6 157.955 414.278 158.343 413.835 158.653C413.396 158.96 412.848 159.114 412.193 159.114C411.633 159.114 411.136 158.991 410.705 158.744C410.277 158.494 409.939 158.125 409.693 157.636C409.451 157.148 409.33 156.544 409.33 155.824V150.273H411.028V155.619C411.028 156.214 411.193 156.687 411.523 157.04C411.852 157.392 412.28 157.568 412.807 157.568C413.125 157.568 413.441 157.489 413.756 157.33C414.074 157.17 414.337 156.93 414.545 156.608C414.758 156.286 414.862 155.877 414.858 155.381ZM421.385 159.193C420.832 159.193 420.332 159.091 419.885 158.886C419.438 158.678 419.084 158.377 418.822 157.983C418.565 157.589 418.436 157.106 418.436 156.534C418.436 156.042 418.531 155.636 418.72 155.318C418.91 155 419.165 154.748 419.487 154.562C419.809 154.377 420.169 154.237 420.567 154.142C420.964 154.047 421.37 153.975 421.783 153.926C422.305 153.866 422.73 153.816 423.055 153.778C423.381 153.737 423.618 153.67 423.766 153.58C423.913 153.489 423.987 153.341 423.987 153.136V153.097C423.987 152.6 423.847 152.216 423.567 151.943C423.29 151.67 422.877 151.534 422.328 151.534C421.756 151.534 421.305 151.661 420.976 151.915C420.65 152.165 420.425 152.443 420.3 152.75L418.703 152.386C418.893 151.856 419.169 151.428 419.533 151.102C419.9 150.773 420.322 150.534 420.8 150.386C421.277 150.235 421.779 150.159 422.305 150.159C422.654 150.159 423.023 150.201 423.413 150.284C423.807 150.364 424.175 150.511 424.516 150.727C424.86 150.943 425.143 151.252 425.362 151.653C425.582 152.051 425.692 152.568 425.692 153.205V159H424.033V157.807H423.964C423.855 158.027 423.69 158.242 423.47 158.455C423.25 158.667 422.968 158.843 422.624 158.983C422.279 159.123 421.866 159.193 421.385 159.193ZM421.754 157.83C422.224 157.83 422.625 157.737 422.959 157.551C423.296 157.366 423.552 157.123 423.726 156.824C423.904 156.521 423.993 156.197 423.993 155.852V154.727C423.932 154.788 423.815 154.845 423.641 154.898C423.47 154.947 423.275 154.991 423.055 155.028C422.836 155.062 422.622 155.095 422.413 155.125C422.205 155.152 422.031 155.174 421.891 155.193C421.561 155.235 421.26 155.305 420.987 155.403C420.718 155.502 420.502 155.644 420.339 155.83C420.18 156.011 420.101 156.254 420.101 156.557C420.101 156.977 420.256 157.295 420.567 157.511C420.877 157.723 421.273 157.83 421.754 157.83ZM429.653 147.364V159H427.955V147.364H429.653ZM431.939 159V150.273H433.638V159H431.939ZM432.797 148.926C432.501 148.926 432.248 148.828 432.036 148.631C431.827 148.43 431.723 148.191 431.723 147.915C431.723 147.634 431.827 147.396 432.036 147.199C432.248 146.998 432.501 146.898 432.797 146.898C433.092 146.898 433.344 146.998 433.553 147.199C433.765 147.396 433.871 147.634 433.871 147.915C433.871 148.191 433.765 148.43 433.553 148.631C433.344 148.828 433.092 148.926 432.797 148.926ZM439.997 150.273V151.636H435.23V150.273H439.997ZM436.509 148.182H438.207V156.438C438.207 156.767 438.257 157.015 438.355 157.182C438.454 157.345 438.58 157.456 438.736 157.517C438.895 157.574 439.067 157.602 439.253 157.602C439.389 157.602 439.509 157.593 439.611 157.574C439.713 157.555 439.793 157.54 439.849 157.528L440.156 158.932C440.058 158.97 439.918 159.008 439.736 159.045C439.554 159.087 439.327 159.11 439.054 159.114C438.607 159.121 438.19 159.042 437.804 158.875C437.418 158.708 437.105 158.451 436.866 158.102C436.628 157.754 436.509 157.316 436.509 156.79V148.182ZM442.95 162.273C442.696 162.273 442.465 162.252 442.257 162.21C442.049 162.172 441.893 162.131 441.791 162.085L442.2 160.693C442.511 160.777 442.787 160.813 443.03 160.801C443.272 160.79 443.486 160.699 443.672 160.528C443.861 160.358 444.028 160.08 444.172 159.693L444.382 159.114L441.189 150.273H443.007L445.217 157.045H445.308L447.518 150.273H449.342L445.746 160.165C445.579 160.619 445.367 161.004 445.109 161.318C444.852 161.636 444.545 161.875 444.189 162.034C443.833 162.193 443.42 162.273 442.95 162.273Z" fill="white"/>
<g filter="url(#filter5_biiiiii_1957_3006)">
<path fill-rule="evenodd" clip-rule="evenodd" d="M76.6158 284.232C101.809 284.232 122.232 263.809 122.232 238.616C122.232 213.423 101.809 193 76.6158 193C51.4229 193 31 213.423 31 238.616C31 263.809 51.4229 284.232 76.6158 284.232ZM76.6155 264.943C91.1554 264.943 102.942 253.156 102.942 238.616C102.942 224.076 91.1554 212.289 76.6155 212.289C62.0756 212.289 50.2887 224.076 50.2887 238.616C50.2887 253.156 62.0756 264.943 76.6155 264.943Z" fill="#C4C4C4" fill-opacity="0.01"/>
</g>
<g filter="url(#filter6_ddif_1957_3006)">
<path d="M111.805 238.883C111.805 245.013 110.167 251.035 107.055 256.344C103.944 261.653 99.469 266.062 94.0799 269.127C88.6908 272.192 82.5777 273.805 76.3549 273.805C70.1321 273.805 64.019 272.192 58.6299 269.127C53.2408 266.062 48.7657 261.653 45.6543 256.344C42.5429 251.035 40.9049 245.013 40.9049 238.883C40.9049 232.753 42.5429 226.731 45.6543 221.422C48.7657 216.113 53.2408 211.705 58.6299 208.64" stroke="white" stroke-width="7.81985" stroke-linecap="round" stroke-linejoin="round"/>
<path d="M111.805 238.883C111.805 245.013 110.167 251.035 107.055 256.344C103.944 261.653 99.469 266.062 94.0799 269.127C88.6908 272.192 82.5777 273.805 76.3549 273.805C70.1321 273.805 64.019 272.192 58.6299 269.127C53.2408 266.062 48.7657 261.653 45.6543 256.344C42.5429 251.035 40.9049 245.013 40.9049 238.883C40.9049 232.753 42.5429 226.731 45.6543 221.422C48.7657 216.113 53.2408 211.705 58.6299 208.64" stroke="url(#paint1_linear_1957_3006)" stroke-width="7.81985" stroke-linecap="round" stroke-linejoin="round"/>
</g>
<defs>
<filter id="filter0_biiiiii_1957_3006" x="-54.2061" y="-56.2061" width="589.412" height="589.412" filterUnits="userSpaceOnUse" color-interpolation-filters="sRGB">
<feFlood flood-opacity="0" result="BackgroundImageFix"/>
<feGaussianBlur in="BackgroundImageFix" stdDeviation="28.103"/>
<feComposite in2="SourceAlpha" operator="in" result="effect1_backgroundBlur_1957_3006"/>
<feBlend mode="normal" in="SourceGraphic" in2="effect1_backgroundBlur_1957_3006" result="shape"/>
<feColorMatrix in="SourceAlpha" type="matrix" values="0 0 0 0 0 0 0 0 0 0 0 0 0 0 0 0 0 0 127 0" result="hardAlpha"/>
<feOffset dy="0.562061"/>
<feGaussianBlur stdDeviation="11.2412"/>
<feComposite in2="hardAlpha" operator="arithmetic" k2="-1" k3="1"/>
<feColorMatrix type="matrix" values="0 0 0 0 0.888917 0 0 0 0 0.870833 0 0 0 0 1 0 0 0 0.2 0"/>
<feBlend mode="normal" in2="shape" result="effect2_innerShadow_1957_3006"/>
<feColorMatrix in="SourceAlpha" type="matrix" values="0 0 0 0 0 0 0 0 0 0 0 0 0 0 0 0 0 0 127 0" result="hardAlpha"/>
<feOffset dy="2.24824"/>
<feGaussianBlur stdDeviation="5.05855"/>
<feComposite in2="hardAlpha" operator="arithmetic" k2="-1" k3="1"/>
<feColorMatrix type="matrix" values="0 0 0 0 0.60543 0 0 0 0 0.574062 0 0 0 0 0.825 0 0 0 0.3 0"/>
<feBlend mode="normal" in2="effect2_innerShadow_1957_3006" result="effect3_innerShadow_1957_3006"/>
<feColorMatrix in="SourceAlpha" type="matrix" values="0 0 0 0 0 0 0 0 0 0 0 0 0 0 0 0 0 0 127 0" result="hardAlpha"/>
<feMorphology radius="26.9789" operator="dilate" in="SourceAlpha" result="effect4_innerShadow_1957_3006"/>
<feOffset dy="55.0819"/>
<feGaussianBlur stdDeviation="28.103"/>
<feComposite in2="hardAlpha" operator="arithmetic" k2="-1" k3="1"/>
<feColorMatrix type="matrix" values="0 0 0 0 0.792093 0 0 0 0 0.675 0 0 0 0 1 0 0 0 0.3 0"/>
<feBlend mode="normal" in2="effect3_innerShadow_1957_3006" result="effect4_innerShadow_1957_3006"/>
<feColorMatrix in="SourceAlpha" type="matrix" values="0 0 0 0 0 0 0 0 0 0 0 0 0 0 0 0 0 0 127 0" result="hardAlpha"/>
<feMorphology radius="35.9719" operator="dilate" in="SourceAlpha" result="effect5_innerShadow_1957_3006"/>
<feOffset dy="-46.089"/>
<feGaussianBlur stdDeviation="19.1101"/>
<feComposite in2="hardAlpha" operator="arithmetic" k2="-1" k3="1"/>
<feColorMatrix type="matrix" values="0 0 0 0 0.374841 0 0 0 0 0.266806 0 0 0 0 0.566667 0 0 0 0.3 0"/>
<feBlend mode="normal" in2="effect4_innerShadow_1957_3006" result="effect5_innerShadow_1957_3006"/>
<feColorMatrix in="SourceAlpha" type="matrix" values="0 0 0 0 0 0 0 0 0 0 0 0 0 0 0 0 0 0 127 0" result="hardAlpha"/>
<feMorphology radius="2.24824" operator="dilate" in="SourceAlpha" result="effect6_innerShadow_1957_3006"/>
<feOffset dy="3.93442"/>
<feGaussianBlur stdDeviation="3.09133"/>
<feComposite in2="hardAlpha" operator="arithmetic" k2="-1" k3="1"/>
<feColorMatrix type="matrix" values="0 0 0 0 1 0 0 0 0 1 0 0 0 0 1 0 0 0 1 0"/>
<feBlend mode="normal" in2="effect5_innerShadow_1957_3006" result="effect6_innerShadow_1957_3006"/>
<feColorMatrix in="SourceAlpha" type="matrix" values="0 0 0 0 0 0 0 0 0 0 0 0 0 0 0 0 0 0 127 0" result="hardAlpha"/>
<feMorphology radius="20.2342" operator="dilate" in="SourceAlpha" result="effect7_innerShadow_1957_3006"/>
<feOffset dy="21.9204"/>
<feGaussianBlur stdDeviation="15.7377"/>
<feComposite in2="hardAlpha" operator="arithmetic" k2="-1" k3="1"/>
<feColorMatrix type="matrix" values="0 0 0 0 1 0 0 0 0 1 0 0 0 0 1 0 0 0 0.5 0"/>
<feBlend mode="normal" in2="effect6_innerShadow_1957_3006" result="effect7_innerShadow_1957_3006"/>
</filter>
<filter id="filter1_f_1957_3006" x="249.904" y="170.515" width="60.7725" height="57.0851" filterUnits="userSpaceOnUse" color-interpolation-filters="sRGB">
<feFlood flood-opacity="0" result="BackgroundImageFix"/>
<feBlend mode="normal" in="SourceGraphic" in2="BackgroundImageFix" result="shape"/>
<feGaussianBlur stdDeviation="9.5" result="effect1_foregroundBlur_1957_3006"/>
</filter>
<filter id="filter2_biiiii_1957_3006" x="-95" y="-30" width="401" height="256" filterUnits="userSpaceOnUse" color-interpolation-filters="sRGB">
<feFlood flood-opacity="0" result="BackgroundImageFix"/>
<feGaussianBlur in="BackgroundImageFix" stdDeviation="50"/>
<feComposite in2="SourceAlpha" operator="in" result="effect1_backgroundBlur_1957_3006"/>
<feBlend mode="normal" in="SourceGraphic" in2="effect1_backgroundBlur_1957_3006" result="shape"/>
<feColorMatrix in="SourceAlpha" type="matrix" values="0 0 0 0 0 0 0 0 0 0 0 0 0 0 0 0 0 0 127 0" result="hardAlpha"/>
<feOffset dy="1"/>
<feGaussianBlur stdDeviation="20"/>
<feComposite in2="hardAlpha" operator="arithmetic" k2="-1" k3="1"/>
<feColorMatrix type="matrix" values="0 0 0 0 0.888917 0 0 0 0 0.870833 0 0 0 0 1 0 0 0 0.2 0"/>
<feBlend mode="normal" in2="shape" result="effect2_innerShadow_1957_3006"/>
<feColorMatrix in="SourceAlpha" type="matrix" values="0 0 0 0 0 0 0 0 0 0 0 0 0 0 0 0 0 0 127 0" result="hardAlpha"/>
<feOffset dy="4"/>
<feGaussianBlur stdDeviation="9"/>
<feComposite in2="hardAlpha" operator="arithmetic" k2="-1" k3="1"/>
<feColorMatrix type="matrix" values="0 0 0 0 0.60543 0 0 0 0 0.574062 0 0 0 0 0.825 0 0 0 0.3 0"/>
<feBlend mode="normal" in2="effect2_innerShadow_1957_3006" result="effect3_innerShadow_1957_3006"/>
<feColorMatrix in="SourceAlpha" type="matrix" values="0 0 0 0 0 0 0 0 0 0 0 0 0 0 0 0 0 0 127 0" result="hardAlpha"/>
<feMorphology radius="48" operator="dilate" in="SourceAlpha" result="effect4_innerShadow_1957_3006"/>
<feOffset dy="98"/>
<feGaussianBlur stdDeviation="50"/>
<feComposite in2="hardAlpha" operator="arithmetic" k2="-1" k3="1"/>
<feColorMatrix type="matrix" values="0 0 0 0 0.792093 0 0 0 0 0.675 0 0 0 0 1 0 0 0 0.3 0"/>
<feBlend mode="normal" in2="effect3_innerShadow_1957_3006" result="effect4_innerShadow_1957_3006"/>
<feColorMatrix in="SourceAlpha" type="matrix" values="0 0 0 0 0 0 0 0 0 0 0 0 0 0 0 0 0 0 127 0" result="hardAlpha"/>
<feMorphology radius="64" operator="dilate" in="SourceAlpha" result="effect5_innerShadow_1957_3006"/>
<feOffset dy="-82"/>
<feGaussianBlur stdDeviation="34"/>
<feComposite in2="hardAlpha" operator="arithmetic" k2="-1" k3="1"/>
<feColorMatrix type="matrix" values="0 0 0 0 0.374841 0 0 0 0 0.266806 0 0 0 0 0.566667 0 0 0 0.3 0"/>
<feBlend mode="normal" in2="effect4_innerShadow_1957_3006" result="effect5_innerShadow_1957_3006"/>
<feColorMatrix in="SourceAlpha" type="matrix" values="0 0 0 0 0 0 0 0 0 0 0 0 0 0 0 0 0 0 127 0" result="hardAlpha"/>
<feMorphology radius="4" operator="dilate" in="SourceAlpha" result="effect6_innerShadow_1957_3006"/>
<feOffset dy="7"/>
<feGaussianBlur stdDeviation="5.5"/>
<feComposite in2="hardAlpha" operator="arithmetic" k2="-1" k3="1"/>
<feColorMatrix type="matrix" values="0 0 0 0 1 0 0 0 0 1 0 0 0 0 1 0 0 0 1 0"/>
<feBlend mode="normal" in2="effect5_innerShadow_1957_3006" result="effect6_innerShadow_1957_3006"/>
</filter>
<filter id="filter3_biiiii_1957_3006" x="18" y="220" width="442" height="256" filterUnits="userSpaceOnUse" color-interpolation-filters="sRGB">
<feFlood flood-opacity="0" result="BackgroundImageFix"/>
<feGaussianBlur in="BackgroundImageFix" stdDeviation="50"/>
<feComposite in2="SourceAlpha" operator="in" result="effect1_backgroundBlur_1957_3006"/>
<feBlend mode="normal" in="SourceGraphic" in2="effect1_backgroundBlur_1957_3006" result="shape"/>
<feColorMatrix in="SourceAlpha" type="matrix" values="0 0 0 0 0 0 0 0 0 0 0 0 0 0 0 0 0 0 127 0" result="hardAlpha"/>
<feOffset dy="1"/>
<feGaussianBlur stdDeviation="20"/>
<feComposite in2="hardAlpha" operator="arithmetic" k2="-1" k3="1"/>
<feColorMatrix type="matrix" values="0 0 0 0 0.888917 0 0 0 0 0.870833 0 0 0 0 1 0 0 0 0.2 0"/>
<feBlend mode="normal" in2="shape" result="effect2_innerShadow_1957_3006"/>
<feColorMatrix in="SourceAlpha" type="matrix" values="0 0 0 0 0 0 0 0 0 0 0 0 0 0 0 0 0 0 127 0" result="hardAlpha"/>
<feOffset dy="4"/>
<feGaussianBlur stdDeviation="9"/>
<feComposite in2="hardAlpha" operator="arithmetic" k2="-1" k3="1"/>
<feColorMatrix type="matrix" values="0 0 0 0 0.60543 0 0 0 0 0.574062 0 0 0 0 0.825 0 0 0 0.3 0"/>
<feBlend mode="normal" in2="effect2_innerShadow_1957_3006" result="effect3_innerShadow_1957_3006"/>
<feColorMatrix in="SourceAlpha" type="matrix" values="0 0 0 0 0 0 0 0 0 0 0 0 0 0 0 0 0 0 127 0" result="hardAlpha"/>
<feMorphology radius="48" operator="dilate" in="SourceAlpha" result="effect4_innerShadow_1957_3006"/>
<feOffset dy="98"/>
<feGaussianBlur stdDeviation="50"/>
<feComposite in2="hardAlpha" operator="arithmetic" k2="-1" k3="1"/>
<feColorMatrix type="matrix" values="0 0 0 0 0.792093 0 0 0 0 0.675 0 0 0 0 1 0 0 0 0.3 0"/>
<feBlend mode="normal" in2="effect3_innerShadow_1957_3006" result="effect4_innerShadow_1957_3006"/>
<feColorMatrix in="SourceAlpha" type="matrix" values="0 0 0 0 0 0 0 0 0 0 0 0 0 0 0 0 0 0 127 0" result="hardAlpha"/>
<feMorphology radius="64" operator="dilate" in="SourceAlpha" result="effect5_innerShadow_1957_3006"/>
<feOffset dy="-82"/>
<feGaussianBlur stdDeviation="34"/>
<feComposite in2="hardAlpha" operator="arithmetic" k2="-1" k3="1"/>
<feColorMatrix type="matrix" values="0 0 0 0 0.374841 0 0 0 0 0.266806 0 0 0 0 0.566667 0 0 0 0.3 0"/>
<feBlend mode="normal" in2="effect4_innerShadow_1957_3006" result="effect5_innerShadow_1957_3006"/>
<feColorMatrix in="SourceAlpha" type="matrix" values="0 0 0 0 0 0 0 0 0 0 0 0 0 0 0 0 0 0 127 0" result="hardAlpha"/>
<feMorphology radius="4" operator="dilate" in="SourceAlpha" result="effect6_innerShadow_1957_3006"/>
<feOffset dy="7"/>
<feGaussianBlur stdDeviation="5.5"/>
<feComposite in2="hardAlpha" operator="arithmetic" k2="-1" k3="1"/>
<feColorMatrix type="matrix" values="0 0 0 0 1 0 0 0 0 1 0 0 0 0 1 0 0 0 1 0"/>
<feBlend mode="normal" in2="effect5_innerShadow_1957_3006" result="effect6_innerShadow_1957_3006"/>
</filter>
<filter id="filter4_biiiii_1957_3006" x="199" y="26" width="384" height="256" filterUnits="userSpaceOnUse" color-interpolation-filters="sRGB">
<feFlood flood-opacity="0" result="BackgroundImageFix"/>
<feGaussianBlur in="BackgroundImageFix" stdDeviation="50"/>
<feComposite in2="SourceAlpha" operator="in" result="effect1_backgroundBlur_1957_3006"/>
<feBlend mode="normal" in="SourceGraphic" in2="effect1_backgroundBlur_1957_3006" result="shape"/>
<feColorMatrix in="SourceAlpha" type="matrix" values="0 0 0 0 0 0 0 0 0 0 0 0 0 0 0 0 0 0 127 0" result="hardAlpha"/>
<feOffset dy="1"/>
<feGaussianBlur stdDeviation="20"/>
<feComposite in2="hardAlpha" operator="arithmetic" k2="-1" k3="1"/>
<feColorMatrix type="matrix" values="0 0 0 0 0.888917 0 0 0 0 0.870833 0 0 0 0 1 0 0 0 0.2 0"/>
<feBlend mode="normal" in2="shape" result="effect2_innerShadow_1957_3006"/>
<feColorMatrix in="SourceAlpha" type="matrix" values="0 0 0 0 0 0 0 0 0 0 0 0 0 0 0 0 0 0 127 0" result="hardAlpha"/>
<feOffset dy="4"/>
<feGaussianBlur stdDeviation="9"/>
<feComposite in2="hardAlpha" operator="arithmetic" k2="-1" k3="1"/>
<feColorMatrix type="matrix" values="0 0 0 0 0.60543 0 0 0 0 0.574062 0 0 0 0 0.825 0 0 0 0.3 0"/>
<feBlend mode="normal" in2="effect2_innerShadow_1957_3006" result="effect3_innerShadow_1957_3006"/>
<feColorMatrix in="SourceAlpha" type="matrix" values="0 0 0 0 0 0 0 0 0 0 0 0 0 0 0 0 0 0 127 0" result="hardAlpha"/>
<feMorphology radius="48" operator="dilate" in="SourceAlpha" result="effect4_innerShadow_1957_3006"/>
<feOffset dy="98"/>
<feGaussianBlur stdDeviation="50"/>
<feComposite in2="hardAlpha" operator="arithmetic" k2="-1" k3="1"/>
<feColorMatrix type="matrix" values="0 0 0 0 0.792093 0 0 0 0 0.675 0 0 0 0 1 0 0 0 0.3 0"/>
<feBlend mode="normal" in2="effect3_innerShadow_1957_3006" result="effect4_innerShadow_1957_3006"/>
<feColorMatrix in="SourceAlpha" type="matrix" values="0 0 0 0 0 0 0 0 0 0 0 0 0 0 0 0 0 0 127 0" result="hardAlpha"/>
<feMorphology radius="64" operator="dilate" in="SourceAlpha" result="effect5_innerShadow_1957_3006"/>
<feOffset dy="-82"/>
<feGaussianBlur stdDeviation="34"/>
<feComposite in2="hardAlpha" operator="arithmetic" k2="-1" k3="1"/>
<feColorMatrix type="matrix" values="0 0 0 0 0.374841 0 0 0 0 0.266806 0 0 0 0 0.566667 0 0 0 0.3 0"/>
<feBlend mode="normal" in2="effect4_innerShadow_1957_3006" result="effect5_innerShadow_1957_3006"/>
<feColorMatrix in="SourceAlpha" type="matrix" values="0 0 0 0 0 0 0 0 0 0 0 0 0 0 0 0 0 0 127 0" result="hardAlpha"/>
<feMorphology radius="4" operator="dilate" in="SourceAlpha" result="effect6_innerShadow_1957_3006"/>
<feOffset dy="7"/>
<feGaussianBlur stdDeviation="5.5"/>
<feComposite in2="hardAlpha" operator="arithmetic" k2="-1" k3="1"/>
<feColorMatrix type="matrix" values="0 0 0 0 1 0 0 0 0 1 0 0 0 0 1 0 0 0 1 0"/>
<feBlend mode="normal" in2="effect5_innerShadow_1957_3006" result="effect6_innerShadow_1957_3006"/>
</filter>
<filter id="filter5_biiiiii_1957_3006" x="14.5005" y="176.501" width="124.231" height="124.231" filterUnits="userSpaceOnUse" color-interpolation-filters="sRGB">
<feFlood flood-opacity="0" result="BackgroundImageFix"/>
<feGaussianBlur in="BackgroundImageFix" stdDeviation="8.24974"/>
<feComposite in2="SourceAlpha" operator="in" result="effect1_backgroundBlur_1957_3006"/>
<feBlend mode="normal" in="SourceGraphic" in2="effect1_backgroundBlur_1957_3006" result="shape"/>
<feColorMatrix in="SourceAlpha" type="matrix" values="0 0 0 0 0 0 0 0 0 0 0 0 0 0 0 0 0 0 127 0" result="hardAlpha"/>
<feOffset dy="0.0865281"/>
<feGaussianBlur stdDeviation="1.73056"/>
<feComposite in2="hardAlpha" operator="arithmetic" k2="-1" k3="1"/>
<feColorMatrix type="matrix" values="0 0 0 0 0.888917 0 0 0 0 0.870833 0 0 0 0 1 0 0 0 0.2 0"/>
<feBlend mode="normal" in2="shape" result="effect2_innerShadow_1957_3006"/>
<feColorMatrix in="SourceAlpha" type="matrix" values="0 0 0 0 0 0 0 0 0 0 0 0 0 0 0 0 0 0 127 0" result="hardAlpha"/>
<feOffset dy="0.346112"/>
<feGaussianBlur stdDeviation="0.778753"/>
<feComposite in2="hardAlpha" operator="arithmetic" k2="-1" k3="1"/>
<feColorMatrix type="matrix" values="0 0 0 0 0.60543 0 0 0 0 0.574062 0 0 0 0 0.825 0 0 0 0.3 0"/>
<feBlend mode="normal" in2="effect2_innerShadow_1957_3006" result="effect3_innerShadow_1957_3006"/>
<feColorMatrix in="SourceAlpha" type="matrix" values="0 0 0 0 0 0 0 0 0 0 0 0 0 0 0 0 0 0 127 0" result="hardAlpha"/>
<feMorphology radius="4.15335" operator="dilate" in="SourceAlpha" result="effect4_innerShadow_1957_3006"/>
<feOffset dy="8.47975"/>
<feGaussianBlur stdDeviation="4.3264"/>
<feComposite in2="hardAlpha" operator="arithmetic" k2="-1" k3="1"/>
<feColorMatrix type="matrix" values="0 0 0 0 0.792093 0 0 0 0 0.675 0 0 0 0 1 0 0 0 0.3 0"/>
<feBlend mode="normal" in2="effect3_innerShadow_1957_3006" result="effect4_innerShadow_1957_3006"/>
<feColorMatrix in="SourceAlpha" type="matrix" values="0 0 0 0 0 0 0 0 0 0 0 0 0 0 0 0 0 0 127 0" result="hardAlpha"/>
<feMorphology radius="5.5378" operator="dilate" in="SourceAlpha" result="effect5_innerShadow_1957_3006"/>
<feOffset dy="-7.0953"/>
<feGaussianBlur stdDeviation="2.94196"/>
<feComposite in2="hardAlpha" operator="arithmetic" k2="-1" k3="1"/>
<feColorMatrix type="matrix" values="0 0 0 0 0.374841 0 0 0 0 0.266806 0 0 0 0 0.566667 0 0 0 0.3 0"/>
<feBlend mode="normal" in2="effect4_innerShadow_1957_3006" result="effect5_innerShadow_1957_3006"/>
<feColorMatrix in="SourceAlpha" type="matrix" values="0 0 0 0 0 0 0 0 0 0 0 0 0 0 0 0 0 0 127 0" result="hardAlpha"/>
<feMorphology radius="0.346112" operator="dilate" in="SourceAlpha" result="effect6_innerShadow_1957_3006"/>
<feOffset dy="0.605697"/>
<feGaussianBlur stdDeviation="0.475905"/>
<feComposite in2="hardAlpha" operator="arithmetic" k2="-1" k3="1"/>
<feColorMatrix type="matrix" values="0 0 0 0 1 0 0 0 0 1 0 0 0 0 1 0 0 0 1 0"/>
<feBlend mode="normal" in2="effect5_innerShadow_1957_3006" result="effect6_innerShadow_1957_3006"/>
<feColorMatrix in="SourceAlpha" type="matrix" values="0 0 0 0 0 0 0 0 0 0 0 0 0 0 0 0 0 0 127 0" result="hardAlpha"/>
<feMorphology radius="3.11501" operator="dilate" in="SourceAlpha" result="effect7_innerShadow_1957_3006"/>
<feOffset dy="3.3746"/>
<feGaussianBlur stdDeviation="2.42279"/>
<feComposite in2="hardAlpha" operator="arithmetic" k2="-1" k3="1"/>
<feColorMatrix type="matrix" values="0 0 0 0 1 0 0 0 0 1 0 0 0 0 1 0 0 0 0.5 0"/>
<feBlend mode="normal" in2="effect6_innerShadow_1957_3006" result="effect7_innerShadow_1957_3006"/>
</filter>
<filter id="filter6_ddif_1957_3006" x="0.119911" y="167.854" width="152.47" height="146.736" filterUnits="userSpaceOnUse" color-interpolation-filters="sRGB">
<feFlood flood-opacity="0" result="BackgroundImageFix"/>
<feColorMatrix in="SourceAlpha" type="matrix" values="0 0 0 0 0 0 0 0 0 0 0 0 0 0 0 0 0 0 127 0" result="hardAlpha"/>
<feOffset/>
<feGaussianBlur stdDeviation="18.4375"/>
<feColorMatrix type="matrix" values="0 0 0 0 0.192157 0 0 0 0 1 0 0 0 0 0.611765 0 0 0 0.5 0"/>
<feBlend mode="normal" in2="BackgroundImageFix" result="effect1_dropShadow_1957_3006"/>
<feColorMatrix in="SourceAlpha" type="matrix" values="0 0 0 0 0 0 0 0 0 0 0 0 0 0 0 0 0 0 127 0" result="hardAlpha"/>
<feOffset/>
<feGaussianBlur stdDeviation="4.7626"/>
<feColorMatrix type="matrix" values="0 0 0 0 0.191667 0 0 0 0 1 0 0 0 0 0.612 0 0 0 0.7 0"/>
<feBlend mode="normal" in2="effect1_dropShadow_1957_3006" result="effect2_dropShadow_1957_3006"/>
<feBlend mode="normal" in="SourceGraphic" in2="effect2_dropShadow_1957_3006" result="shape"/>
<feColorMatrix in="SourceAlpha" type="matrix" values="0 0 0 0 0 0 0 0 0 0 0 0 0 0 0 0 0 0 127 0" result="hardAlpha"/>
<feOffset/>
<feGaussianBlur stdDeviation="1.84375"/>
<feComposite in2="hardAlpha" operator="arithmetic" k2="-1" k3="1"/>
<feColorMatrix type="matrix" values="0 0 0 0 0.192157 0 0 0 0 1 0 0 0 0 0.611765 0 0 0 0.5 0"/>
<feBlend mode="normal" in2="shape" result="effect3_innerShadow_1957_3006"/>
<feGaussianBlur stdDeviation="0.340186" result="effect4_foregroundBlur_1957_3006"/>
</filter>
<radialGradient id="paint0_radial_1957_3006" cx="0" cy="0" r="1" gradientUnits="userSpaceOnUse" gradientTransform="translate(291.152 178.285) rotate(125.364) scale(71.3323 79.3873)">
<stop stop-color="#C1A8FF"/>
<stop offset="1" stop-color="white" stop-opacity="0"/>
</radialGradient>
<linearGradient id="paint1_linear_1957_3006" x1="76.3549" y1="208.64" x2="76.3549" y2="273.805" gradientUnits="userSpaceOnUse">
<stop stop-color="white"/>
<stop offset="1" stop-color="white" stop-opacity="0"/>
</linearGradient>
</defs>
</svg>
