<svg width="24" height="24" viewBox="0 0 24 24" fill="none" xmlns="http://www.w3.org/2000/svg">
<path d="M5.3631 15.637C5.27949 15.5535 5.21317 15.4542 5.16793 15.345C5.12268 15.2358 5.09939 15.1188 5.09939 15.0005C5.09939 14.8823 5.12268 14.7653 5.16793 14.6561C5.21317 14.5468 5.27949 14.4476 5.3631 14.364L6.8261 12.9H3.0001C2.7614 12.9 2.53248 12.8052 2.3637 12.6364C2.19492 12.4677 2.1001 12.2387 2.1001 12C2.1001 11.7613 2.19492 11.5324 2.3637 11.3636C2.53248 11.1949 2.7614 11.1 3.0001 11.1H6.8271L5.3631 9.63704C5.27951 9.55346 5.21321 9.45422 5.16797 9.34501C5.12273 9.2358 5.09945 9.11875 5.09945 9.00054C5.09945 8.88233 5.12273 8.76528 5.16797 8.65607C5.21321 8.54686 5.27951 8.44763 5.3631 8.36404C5.44668 8.28046 5.54592 8.21415 5.65513 8.16892C5.76434 8.12368 5.88139 8.1004 5.9996 8.1004C6.11781 8.1004 6.23486 8.12368 6.34407 8.16892C6.45328 8.21415 6.55251 8.28046 6.6361 8.36404L9.6361 11.364C9.72018 11.4473 9.78692 11.5465 9.83247 11.6557C9.87802 11.765 9.90148 11.8822 9.90148 12.0005C9.90148 12.1189 9.87802 12.2361 9.83247 12.3453C9.78692 12.4546 9.72018 12.5537 9.6361 12.637L6.6361 15.637C6.55252 15.7206 6.45329 15.787 6.34408 15.8322C6.23487 15.8775 6.11781 15.9008 5.9996 15.9008C5.88138 15.9008 5.76433 15.8775 5.65511 15.8322C5.5459 15.787 5.44667 15.7206 5.3631 15.637ZM17.3631 15.637C17.5319 15.8059 17.7609 15.9007 17.9996 15.9007C18.2383 15.9007 18.4673 15.8059 18.6361 15.637C18.8049 15.4682 18.8997 15.2393 18.8997 15.0005C18.8997 14.7618 18.8049 14.5329 18.6361 14.364L17.1721 12.9H20.9991C21.1173 12.9 21.2343 12.8768 21.3435 12.8315C21.4527 12.7863 21.5519 12.72 21.6355 12.6364C21.7191 12.5529 21.7854 12.4536 21.8306 12.3445C21.8758 12.2353 21.8991 12.1182 21.8991 12C21.8991 11.8819 21.8758 11.7648 21.8306 11.6556C21.7854 11.5464 21.7191 11.4472 21.6355 11.3636C21.5519 11.2801 21.4527 11.2138 21.3435 11.1686C21.2343 11.1233 21.1173 11.1 20.9991 11.1H17.1721L18.6351 9.63704C18.7216 9.55419 18.7908 9.45489 18.8384 9.34497C18.8861 9.23505 18.9114 9.11671 18.9127 8.99691C18.914 8.8771 18.8914 8.75824 18.8462 8.64728C18.801 8.53633 18.7341 8.43552 18.6494 8.35077C18.5647 8.26601 18.4639 8.19902 18.353 8.15372C18.2421 8.10842 18.1233 8.08573 18.0034 8.08696C17.8836 8.0882 17.7653 8.11334 17.6553 8.16092C17.5454 8.2085 17.446 8.27756 17.3631 8.36404L14.3671 11.359C14.2908 11.4339 14.2288 11.522 14.1841 11.619C14.1048 11.7875 14.0798 11.9764 14.1126 12.1597C14.1454 12.343 14.2343 12.5115 14.3671 12.642L17.3631 15.637Z" fill="#4ADE80"/>
</svg>
