<svg width="24" height="24" viewBox="0 0 24 24" fill="none" xmlns="http://www.w3.org/2000/svg">
<path d="M18.635 8.26395C18.5514 8.18037 18.4522 8.11406 18.343 8.06882C18.2338 8.02359 18.1167 8.00031 17.9985 8.00031C17.8803 8.00031 17.7633 8.02359 17.654 8.06882C17.5448 8.11406 17.4456 8.18037 17.362 8.26395C17.2784 8.34754 17.2121 8.44677 17.1669 8.55598C17.1217 8.66519 17.0984 8.78224 17.0984 8.90045C17.0984 9.01866 17.1217 9.13571 17.1669 9.24492C17.2121 9.35413 17.2784 9.45337 17.362 9.53695L18.826 11H14.999C14.8808 11 14.7638 11.0232 14.6546 11.0685C14.5454 11.1137 14.4462 11.18 14.3626 11.2636C14.279 11.3471 14.2128 11.4463 14.1675 11.5555C14.1223 11.6647 14.099 11.7818 14.099 11.9C14.099 12.0181 14.1223 12.1352 14.1675 12.2444C14.2128 12.3536 14.279 12.4528 14.3626 12.5363C14.4462 12.6199 14.5454 12.6862 14.6546 12.7314C14.7638 12.7767 14.8808 12.8 14.999 12.8H18.826L17.362 14.264C17.1932 14.4328 17.0984 14.6617 17.0984 14.9005C17.0984 15.1392 17.1932 15.3681 17.362 15.537C17.5308 15.7058 17.7598 15.8006 17.9985 15.8006C18.2373 15.8006 18.4662 15.7058 18.635 15.537L21.63 12.541C21.7055 12.4656 21.7677 12.378 21.814 12.282C21.8935 12.1135 21.9185 11.9244 21.8855 11.741C21.8525 11.5577 21.7632 11.3892 21.63 11.259L18.635 8.26395ZM6.63502 8.26395C6.71862 8.34753 6.78494 8.44676 6.83019 8.55597C6.87544 8.66518 6.89872 8.78224 6.89872 8.90045C6.89872 9.01867 6.87544 9.13572 6.83019 9.24494C6.78494 9.35415 6.71862 9.45338 6.63502 9.53695L5.17202 11H8.99902C9.23771 11 9.46663 11.0948 9.63541 11.2636C9.8042 11.4323 9.89902 11.6613 9.89902 11.9C9.89902 12.1386 9.8042 12.3676 9.63541 12.5363C9.46663 12.7051 9.23771 12.8 8.99902 12.8H5.17002L6.63402 14.264C6.7205 14.3469 6.78956 14.4462 6.83714 14.5562C6.88472 14.6661 6.90986 14.7845 6.9111 14.9043C6.91233 15.0241 6.88964 15.143 6.84434 15.2539C6.79904 15.3648 6.73204 15.4656 6.64729 15.5502C6.56254 15.6349 6.46173 15.7018 6.35077 15.747C6.23982 15.7923 6.12095 15.8149 6.00115 15.8135C5.88135 15.8122 5.76301 15.787 5.65309 15.7393C5.54317 15.6916 5.44387 15.6225 5.36102 15.536L2.36102 12.536C2.24014 12.4155 2.15617 12.2631 2.11897 12.0966C2.08177 11.93 2.09289 11.7564 2.15102 11.596C2.19563 11.4711 2.26735 11.3577 2.36102 11.264L5.36102 8.26395C5.44459 8.18035 5.54382 8.11403 5.65303 8.06878C5.76225 8.02353 5.8793 8.00024 5.99752 8.00024C6.11573 8.00024 6.23279 8.02353 6.342 8.06878C6.45121 8.11403 6.55044 8.18035 6.63402 8.26395H6.63502Z" fill="#4ADE80"/>
</svg>
