<svg width="16" height="17" viewBox="0 0 16 17" fill="none" xmlns="http://www.w3.org/2000/svg">
<path d="M8 4.5V13.8333" stroke="#4ADE80" stroke-width="1.5" stroke-linecap="round"/>
<path d="M3.98696 2.69029C6.21442 3.1144 7.54198 4.00154 7.99992 4.51085C8.45785 4.00154 9.78538 3.1144 12.0129 2.69029C13.1413 2.47543 13.7055 2.36801 14.1861 2.77976C14.6666 3.19151 14.6666 3.86015 14.6666 5.19742V10.0033C14.6666 11.2261 14.6666 11.8374 14.3582 12.2191C14.0498 12.6008 13.3709 12.7301 12.0129 12.9887C10.8024 13.2191 9.85765 13.5863 9.17379 13.9554C8.50099 14.3185 8.16458 14.5 7.99992 14.5C7.83525 14.5 7.49885 14.3185 6.82605 13.9554C6.14221 13.5863 5.19747 13.2191 3.98696 12.9887C2.62902 12.7301 1.95005 12.6008 1.64165 12.2191C1.33325 11.8374 1.33325 11.2261 1.33325 10.0033V5.19742C1.33325 3.86015 1.33325 3.19151 1.81377 2.77976C2.2943 2.36801 2.85852 2.47543 3.98696 2.69029Z" stroke="#4ADE80" stroke-width="1.5" stroke-linecap="round" stroke-linejoin="round"/>
</svg>
