<svg width="171" height="140" viewBox="0 0 171 140" fill="none" xmlns="http://www.w3.org/2000/svg">
<path fill-rule="evenodd" clip-rule="evenodd" d="M60.2028 24.6889C38.4484 21.9917 18.6619 37.4438 16.0085 59.2022C13.3551 80.9606 28.8395 100.786 50.5939 103.483L86.5214 107.937C87.9515 108.115 89.3731 108.214 90.7819 108.237L116.066 128.177L116.99 98.8692C124.342 92.6499 129.457 83.7467 130.716 73.4242C133.369 51.6658 117.885 31.8406 96.1303 29.1434L60.2028 24.6889Z" fill="#AC8AFC"/>
<path fill-rule="evenodd" clip-rule="evenodd" d="M60.2028 24.6889C38.4484 21.9917 18.6619 37.4438 16.0085 59.2022C13.3551 80.9606 28.8395 100.786 50.5939 103.483L86.5214 107.937C87.9515 108.115 89.3731 108.214 90.7819 108.237L116.066 128.177L116.99 98.8692C124.342 92.6499 129.457 83.7467 130.716 73.4242C133.369 51.6658 117.885 31.8406 96.1303 29.1434L60.2028 24.6889Z" fill="url(#paint0_radial_1957_3317)" fill-opacity="0.6"/>
<rect width="25.1265" height="39.6902" rx="12.5632" transform="matrix(0.992443 0.12296 -0.121138 0.992603 83.2443 47.5366)" fill="#1A2230"/>
<rect width="25.1265" height="39.6902" rx="12.5632" transform="matrix(0.992443 0.12296 -0.121138 0.992603 43.3456 42.5933)" fill="#1A2230"/>
<g filter="url(#filter0_f_1957_3317)">
<ellipse cx="12.6989" cy="5.68163" rx="12.6989" ry="5.68163" transform="matrix(0.797423 0.603213 -0.610254 0.792366 106.162 33.2915)" fill="#DBCCFF"/>
</g>
<ellipse cx="14.3323" cy="14.3294" rx="14.3323" ry="14.3294" transform="matrix(0.793632 -0.608398 0.608994 0.793175 130.798 17.4395)" fill="#AC8AFC"/>
<ellipse cx="14.3323" cy="14.3294" rx="14.3323" ry="14.3294" transform="matrix(0.793632 -0.608398 0.608994 0.793175 130.798 17.4395)" fill="url(#paint1_radial_1957_3317)" fill-opacity="0.6"/>
<defs>
<filter id="filter0_f_1957_3317" x="89.6546" y="24.107" width="46.3328" height="42.6933" filterUnits="userSpaceOnUse" color-interpolation-filters="sRGB">
<feFlood flood-opacity="0" result="BackgroundImageFix"/>
<feBlend mode="normal" in="SourceGraphic" in2="BackgroundImageFix" result="shape"/>
<feGaussianBlur stdDeviation="6.22996" result="effect1_foregroundBlur_1957_3317"/>
</filter>
<radialGradient id="paint0_radial_1957_3317" cx="0" cy="0" r="1" gradientUnits="userSpaceOnUse" gradientTransform="translate(122.977 26.1745) rotate(125.598) scale(66.3929 74.4624)">
<stop stop-color="#C1A8FF"/>
<stop offset="1" stop-color="white" stop-opacity="0"/>
</radialGradient>
<radialGradient id="paint1_radial_1957_3317" cx="0" cy="0" r="1" gradientUnits="userSpaceOnUse" gradientTransform="translate(25.3411 -1.86905) rotate(114.345) scale(19.1471 19.1496)">
<stop stop-color="white"/>
<stop offset="1" stop-color="white" stop-opacity="0"/>
</radialGradient>
</defs>
</svg>
