<svg width="21" height="21" viewBox="0 0 21 21" fill="none" xmlns="http://www.w3.org/2000/svg">
<path d="M11.3752 16.6169C11.3066 17.5136 11.1364 18.1002 10.7133 18.5302C10.0052 19.25 8.86539 19.25 6.58584 19.25C4.30632 19.25 3.16656 19.25 2.4584 18.5302C1.75024 17.8104 1.75024 16.6519 1.75024 14.3349V10.1218C1.75024 7.80478 1.75024 6.64626 2.4584 5.92644C2.88895 5.48881 3.47905 5.31725 4.38784 5.25" stroke="#4ADE80" stroke-width="1.5" stroke-linecap="round"/>
<path d="M6.55542 16.625H6.56496" stroke="#4ADE80" stroke-width="1.5" stroke-linecap="round" stroke-linejoin="round"/>
<path d="M14.0689 1.75H12.1816C9.64344 1.75 8.37441 1.75 7.62113 2.54034C6.86786 3.33069 6.94702 4.57912 7.10534 7.07598L7.21545 8.81265C7.25184 9.38647 7.27003 9.67339 7.33444 9.9127C7.58319 10.8368 8.34366 11.541 9.29493 11.7281C9.54124 11.7765 9.83288 11.7765 10.4162 11.7765C11.2289 11.7765 11.2179 12.4478 11.2179 13.1122C11.2179 13.6277 11.2179 13.8854 11.3858 13.9739C11.5537 14.0625 11.7713 13.9195 12.2064 13.6336L14.7959 11.932C14.9653 11.8207 15.1175 11.7765 15.3169 11.7765C16.3864 11.7765 16.9211 11.7765 17.3544 11.6156C18.8558 11.0582 18.9806 9.67103 19.0673 8.30371L19.1452 7.07598C19.3034 4.57912 19.3826 3.33069 18.6293 2.54034C17.8761 1.75 16.607 1.75 14.0689 1.75Z" stroke="#4ADE80" stroke-width="1.5" stroke-linejoin="round"/>
<path d="M15.3743 9.1875L14.8274 8.09375M14.8274 8.09375L13.1243 4.8125L11.5461 8.09375M14.8274 8.09375H11.5461M10.9993 9.1875L11.5461 8.09375" stroke="#4ADE80" stroke-width="1.5" stroke-linecap="round" stroke-linejoin="round"/>
</svg>
